<?xml version="1.0" encoding="UTF-8"?>
<svg width="108px" height="108px" viewBox="0 0 108 108" version="1.1" xmlns="http://www.w3.org/2000/svg" xmlns:xlink="http://www.w3.org/1999/xlink">
    <!-- Generator: Sketch 60.1 (88133) - https://sketch.com -->
    <title>编组 3</title>
    <desc>Created with Sketch.</desc>
    <g id="Page-1备份" stroke="none" stroke-width="1" fill="none" fill-rule="evenodd">
        <g id="index-第一屏" transform="translate(-427.000000, -2290.000000)">
            <g id="Group-2" transform="translate(0.000000, 2142.000000)">
                <g id="Group-14" transform="translate(427.000000, 148.000000)">
                    <g id="编组-3">
                        <circle id="Oval" fill="#FFFFFF" cx="54" cy="54" r="54"></circle>
                        <g id="dribbble" transform="translate(25.000000, 25.000000)" fill-rule="nonzero">
                            <path d="M28.5912,1.9001545 C43.3335375,1.9001545 55.2614287,13.8375957 55.2614287,28.5693818 C55.2614287,43.3011678 43.3335375,55.2609638 28.5912,55.2609638 C13.8488625,55.2609638 1.92097125,43.3235226 1.92097125,28.5917365 C1.92097125,13.8599505 13.8488625,1.9001545 28.5912,1.9001545 Z" id="路径" fill="#E74D89"></path>
                            <path d="M28.5912,57.1611183 C12.8213662,57.1611183 0,44.3518415 0,28.5917365 C0,12.8092768 12.8213662,0 28.5912,0 C44.3610337,0 57.1824,12.8092768 57.1824,28.5693818 C57.1824,44.3294867 44.3610337,57.1611183 28.5912,57.1611183 Z M52.6926881,32.4814645 C51.8662237,32.2132074 45.1428244,30.2236339 37.4812762,31.4307909 C40.6754494,40.1938563 41.9709881,47.3473792 42.2166937,48.8227932 C47.711565,45.134258 51.6205181,39.2773112 52.6926881,32.4814645 Z M38.1290456,51.0806239 C37.7716556,48.934567 36.3420956,41.4680776 32.9245537,32.5708836 C32.87988,32.5932383 32.8128694,32.6155931 32.7681956,32.6155931 C18.9863437,37.4218662 14.0498944,46.9673483 13.6031569,47.8615386 C17.7354787,51.0806239 22.9399706,53.0031331 28.5912,53.0031331 C31.9640681,53.0254879 35.202915,52.3324904 38.1290456,51.0806239 L38.1290456,51.0806239 Z M10.4536575,44.9330652 C11.0120794,43.9941653 17.7131419,32.906205 30.3111394,28.8152841 C30.6238556,28.7035103 30.9589088,28.6140913 31.271625,28.5246722 C30.6685294,27.1386772 29.9984231,25.7526821 29.2836431,24.3890419 C17.0877094,28.0328675 5.24916563,27.8763842 4.17699563,27.8540295 C4.17699563,28.0999318 4.15465875,28.3458342 4.15465875,28.5917365 C4.17699563,34.8734237 6.54470438,40.596242 10.4536575,44.9330652 Z M4.69074375,23.6066253 C5.78525062,23.6289801 15.8368444,23.6736896 27.2733244,20.6334424 C23.23035,13.43521 18.8523225,7.39942517 18.22689,6.52758957 C11.3694694,9.74667484 6.27666187,16.0507168 4.69074375,23.6066253 Z M22.87296,4.87333742 C23.5430662,5.76752777 27.9881044,11.8033127 31.986405,19.1580283 C40.6754494,15.8942335 44.3386969,10.9761866 44.7854344,10.3502533 C40.4744175,6.52758957 34.8008512,4.20269466 28.5912,4.20269466 C26.625555,4.20269466 24.7045837,4.448597 22.87296,4.87333742 Z M47.4881962,13.1669529 C46.9744481,13.8599505 42.8868,19.1133188 33.8627025,22.801854 C34.4211244,23.9643014 34.9795463,25.1491037 35.4932944,26.3339059 C35.6719894,26.7586463 35.8506844,27.1833867 36.0293794,27.5857724 C44.1600019,26.5574535 52.2236137,28.2117056 53.0277412,28.3681889 C52.9607306,22.6230159 50.9057381,17.3249381 47.4881962,13.1669529 Z" id="形状" fill="#B2215A"></path>
                        </g>
                    </g>
                </g>
            </g>
        </g>
    </g>
</svg>