<?xml version="1.0" encoding="UTF-8"?>
<svg width="419px" height="478px" viewBox="0 0 419 478" version="1.1" xmlns="http://www.w3.org/2000/svg" xmlns:xlink="http://www.w3.org/1999/xlink">
    <!-- Generator: Sketch 60.1 (88133) - https://sketch.com -->
    <title>portrait</title>
    <desc>Created with Sketch.</desc>
    <defs>
        <filter x="-46.9%" y="-31.4%" width="193.8%" height="162.7%" filterUnits="objectBoundingBox" id="filter-1">
            <feGaussianBlur stdDeviation="6" in="SourceGraphic"></feGaussianBlur>
        </filter>
    </defs>
    <g id="portrait" stroke="none" stroke-width="1" fill="none" fill-rule="evenodd">
        <rect id="矩形" fill="#ACD675" x="60" y="95" width="272" height="352"></rect>
        <rect id="矩形" fill="#86B853" x="75" y="116" width="243" height="326"></rect>
        <g id="编组-10" transform="translate(75.000000, 126.000000)">
            <path d="M13.5,-2.27373675e-13 L65,0.5 C66.1977787,16.1169736 64.1977787,30.0897063 59,42.4181979 C35,99.3432457 19.5,121.310263 19.5,132.155132 C19.5,139.385044 32.5131919,194.56131 58.5395756,297.683929 L-4.12114787e-13,299.19026 L7.80072099,0.5 L13.5,-2.27373675e-13 Z" id="路径-49" fill="#7AB141"></path>
            <path d="M59,1.5 C54.3406252,27.0639743 50.3406252,45.0621339 47,55.4944787 C35.8335422,90.3658962 21.2962069,118.049287 16,126.845095 C16.2277502,141.896516 27.8944169,197.948151 51,295" id="路径-50" stroke="#6BA732" stroke-width="1.3" opacity="0.5"></path>
            <path d="M46.9945902,2 C44.3193549,25.0794192 41.8851145,41.2975454 39.691869,50.6543786 C30.3082416,90.6868504 20.01978,116.321922 14.3386796,125.756951 C14.5664299,140.808372 23.7463069,197.222721 41.8783107,295" id="路径-50" stroke="#6BA732" stroke-width="1.3" opacity="0.5"></path>
            <path d="M34.6117943,2.5 C34.3852804,21.7963446 33.7374299,35.5472965 32.6682426,43.7528556 C26.8120607,88.6965703 18.467443,115.77482 12.4441218,125.778201 C12.6718721,140.829622 19.4132456,198.633642 32.6682426,299.19026" id="路径-50" stroke="#6BA732" stroke-width="1.3" opacity="0.5"></path>
            <path d="M20.1975607,2 C23.2683524,24.5352394 24.3784848,41.2523777 23.5279581,52.1514148 C21.6395449,76.3503996 17.616434,103.542649 12.4441218,125.778201" id="路径-51" stroke="#6BA732" stroke-width="1.3" opacity="0.5"></path>
        </g>
        <g id="编组-10" transform="translate(283.000000, 278.000000) scale(-1, 1) translate(-283.000000, -278.000000) translate(250.000000, 128.000000)">
            <path d="M13.5,-2.27373675e-13 L65,0.5 C66.1977787,16.1169736 64.1977787,30.0897063 59,42.4181979 C35,99.3432457 19.5,121.310263 19.5,132.155132 C19.5,139.385044 32.5131919,194.56131 58.5395756,297.683929 L-4.12114787e-13,299.19026 L7.80072099,0.5 L13.5,-2.27373675e-13 Z" id="路径-49" fill="#7AB141"></path>
            <path d="M59,1.5 C54.3406252,27.0639743 50.3406252,45.0621339 47,55.4944787 C35.8335422,90.3658962 21.2962069,118.049287 16,126.845095 C16.2277502,141.896516 27.8944169,197.948151 51,295" id="路径-50" stroke="#6BA732" stroke-width="1.3" opacity="0.5"></path>
            <path d="M46.9945902,2 C44.3193549,25.0794192 41.8851145,41.2975454 39.691869,50.6543786 C30.3082416,90.6868504 20.01978,116.321922 14.3386796,125.756951 C14.5664299,140.808372 23.7463069,197.222721 41.8783107,295" id="路径-50" stroke="#6BA732" stroke-width="1.3" opacity="0.5"></path>
            <path d="M34.6117943,2.5 C34.3852804,21.7963446 33.7374299,35.5472965 32.6682426,43.7528556 C26.8120607,88.6965703 18.467443,115.77482 12.4441218,125.778201 C12.6718721,140.829622 19.4132456,198.633642 32.6682426,299.19026" id="路径-50" stroke="#6BA732" stroke-width="1.3" opacity="0.5"></path>
            <path d="M20.1975607,2 C23.2683524,24.5352394 24.3784848,41.2523777 23.5279581,52.1514148 C21.6395449,76.3503996 18.1723121,100.306145 13,122.541697" id="路径-51" stroke="#6BA732" stroke-width="1.3" opacity="0.5"></path>
        </g>
        <rect id="矩形" stroke="#6AA62E" stroke-width="12" x="81" y="122" width="231" height="319"></rect>
        <path d="M365.171308,219.848189 L352.286776,245.950237 L352.865643,247.579671 L343.586266,265.96307 L337.189846,271 L329.889029,276.25 C327.825098,268.407583 326.793133,263.764501 326.793133,262.320753 C326.793133,260.877006 332.757511,247.936754 344.686266,223.5 L359.944949,218.83389 L365.171308,219.848189 Z" id="路径-52" fill="#E7E7E7" filter="url(#filter-1)"></path>
        <line x1="321.5" y1="290" x2="321.5" y2="114" id="路径-39" stroke="#689A33" opacity="0.400000006" stroke-linecap="round"></line>
        <line x1="324.5" y1="301" x2="324.5" y2="155" id="路径-39" stroke="#689A33" opacity="0.400000006" stroke-linecap="round"></line>
        <g id="编组-5" transform="translate(59.000000, 157.000000)">
            <polygon id="路径-13" fill="#FDF4D8" points="104.792118 79.3706644 99.920005 124.052827 119.35 137.490968 150.163545 122.359534 136.9 75.0596297"></polygon>
            <path d="M103.15,82.2164397 C112.821044,96.9626297 121.313193,103.920005 128.626445,103.088566 C135.939697,102.257127 139.602298,93.876808 139.614247,77.9476093 L106.192874,75.3332724 L103.15,82.2164397 Z" id="路径-3" fill="#FAEABC"></path>
            <g id="编组" transform="translate(78.400000, 0.000000)">
                <path d="M73.0289958,34.5691978 C73.5871892,53.618135 76.0562253,64.6320209 80.4361041,67.6108555 C80.2924648,67.7932735 73.4064817,74.1416561 70.7216526,74.850595 C68.9317666,75.323221 66.9602539,74.9943937 64.8071147,73.8641133 L70.7216526,37.3246262 L73.0289958,34.5691978 Z" id="路径-11" fill="#4C4C4C"></path>
                <path d="M4.91210313,46.5813861 C1.20962266,47.0590275 14.2367984,75.4237976 9.66354508,81.4917615 C9.55134588,81.9644321 14.5801642,81.9644321 24.75,81.4917615 C15.1906424,57.7019165 8.57801012,46.0651247 4.91210313,46.5813861 Z" id="路径-12" fill="#4C4C4C"></path>
                <path d="M5.4,55.8067979 C9.77277291,51.9315714 12.5312692,52.1560731 13.6754887,56.4803029 C14.8197083,60.8045327 12.0612121,65.9712699 5.4,71.9805143 L5.4,55.8067979 Z" id="‰" fill="#FBE9BA" transform="translate(9.663545, 62.520024) scale(-1, 1) rotate(19.000000) translate(-9.663545, -62.520024) "></path>
                <path d="M67.5,42.3067979 C71.8727729,38.4315714 74.6312692,38.6560731 75.7754887,42.9803029 C76.9197083,47.3045327 74.1612121,52.4712699 67.5,58.4805143 L67.5,42.3067979 Z" id="路径-9" fill="#FBE9BA" transform="translate(71.763545, 49.020024) rotate(9.000000) translate(-71.763545, -49.020024) "></path>
                <path d="M39.6001757,90.8595186 C52.2066892,91.0880829 72.0001757,71.9211635 72.0001757,48.5595186 C72.0001757,25.1978737 57.4942016,6.25951862 39.6001757,6.25951862 C21.7061498,6.25951862 7.20017567,25.1978737 7.20017567,48.5595186 C7.20017567,71.9211635 26.9936621,90.6309543 39.6001757,90.8595186 Z" id="椭圆形" fill="#FDF4D8" transform="translate(39.600176, 48.560530) rotate(-10.000000) translate(-39.600176, -48.560530) "></path>
                <path d="M49.6,43.7822594 C52.4162379,42.101168 55.7471512,41.6093261 59.5927399,42.3067339" id="路径-15" stroke="#4C4C4C" stroke-width="1.17" stroke-linecap="round" transform="translate(54.596370, 42.891130) rotate(25.000000) translate(-54.596370, -42.891130) "></path>
                <path d="M16.3076944,48.9164934 C18.7207176,47.5628844 21.8172445,47.162117 25.5972752,47.7141912" id="路径-15" stroke="#4C4C4C" stroke-width="1.17" stroke-linecap="round" transform="translate(20.952485, 48.195391) scale(-1, 1) rotate(46.000000) translate(-20.952485, -48.195391) "></path>
                <path d="M24.7898081,8.79802702 C23.3180643,14.5227839 35.9340011,45.6296505 78.293454,37.0090429 C73.4892081,33.6926108 67.9090618,0.8 38.3401079,0.8 C31.2695061,0.8 26.261552,3.07327018 24.7898081,8.79802702 Z" id="路径-7" fill="#4C4C4C"></path>
                <path d="M28.6458649,6.05014831 C38.6485015,7.84232814 36.1704269,42.1430295 4.26872262,47.9250825 C-1.47622387,40.5677458 7.84492334,3.90263697 28.6458649,6.05014831 Z" id="路径-8" fill="#4C4C4C"></path>
                <ellipse id="椭圆形" fill="#EDD797" transform="translate(40.347124, 59.609612) rotate(-10.000000) translate(-40.347124, -59.609612) " cx="40.3471239" cy="59.6096125" rx="2" ry="8.5"></ellipse>
                <g id="编组-3" transform="translate(50.212879, 44.979201)">
                    <ellipse id="椭圆形" fill="#4C4C4C" transform="translate(3.150000, 5.400000) rotate(-12.000000) translate(-3.150000, -5.400000) " cx="3.15" cy="5.4" rx="2.25" ry="4.5"></ellipse>
                    <path d="M2.53838262,1.6149679 C3.89587263,2.01675025 4.95768084,1.92624865 5.72380726,1.34346311" id="路径" stroke="#4C4C4C" stroke-width="1.17" stroke-linecap="round"></path>
                </g>
                <g id="编组-2" transform="translate(20.880340, 50.369368)">
                    <ellipse id="椭圆形" fill="#4C4C4C" transform="translate(3.776100, 5.400000) rotate(-12.000000) translate(-3.776100, -5.400000) " cx="3.77609982" cy="5.4" rx="2.25" ry="4.5"></ellipse>
                    <path d="M0,1.5840323 C1.35749,1.98581464 2.41929822,1.89531304 3.18542464,1.3125275" id="路径" stroke="#4C4C4C" stroke-width="1.17" stroke-linecap="round" transform="translate(1.592712, 1.571249) scale(-1, 1) translate(-1.592712, -1.571249) "></path>
                </g>
                <path d="M37.8,75.9697393 L50.3352791,72.859534 C50.3757606,77.511343 48.9026534,80.3069808 45.9159575,81.2464474 C42.9292615,82.185914 40.2239424,80.4270113 37.8,75.9697393 Z" id="路径-10" fill="#FFFFFF"></path>
                <circle id="椭圆形" fill="#FDB39C" opacity="0.699999988" cx="63.1" cy="60.5" r="4.5"></circle>
                <ellipse id="椭圆形" fill="#FFFFFF" transform="translate(9.600000, 66.500000) rotate(-17.000000) translate(-9.600000, -66.500000) " cx="9.6" cy="66.5" rx="1" ry="1.5"></ellipse>
                <ellipse id="椭圆形" fill="#FFFFFF" transform="translate(74.600000, 50.500000) rotate(-9.000000) translate(-74.600000, -50.500000) " cx="74.6" cy="50.5" rx="1" ry="1.5"></ellipse>
                <circle id="椭圆形" fill="#FDB39C" opacity="0.699999988" cx="22.1" cy="69.5" r="4.5"></circle>
            </g>
            <g id="编组-4" transform="translate(0.000000, 32.000000)">
                <polygon id="路径-14" fill="#CF6129" points="88.7440287 74.2943157 121 82 155.397977 73.0170975 209.848373 101 255 49.4917615 285.686266 68.4969867 223.795695 153.471594 191.116327 149.167751 198.518355 257.451427 75.0854973 257.451427 57.9383657 174.047123 40.3413673 256.141773 0 256.141773 32 105.490968"></polygon>
                <polygon id="路径-47" fill="#864727" points="284.586266 70.6110612 278.693052 78.1086599 251 53.4808848 255.481388 49"></polygon>
                <path d="M58.177632,174.210247 L74.0911803,253 L91.8516826,253 C102.189173,231.359866 101.20366,217.034073 88.8951438,210.022619 C70.4323689,199.505439 68.9919294,184.189677 66.485291,176.903881 C65.2632429,173.351875 65.0206778,150.983922 63.6368142,151.44846 C63.5415895,151.480425 63.318049,151.410012 63.2451816,151.833585 C62.7779241,154.549724 61.0887409,162.008611 58.177632,174.210247 Z" id="路径-25" fill="#B15226" opacity="0.5"></path>
                <polygon id="路径-5" fill="#8F4323" points="76.876467 82.5046444 75 87.2922714 107.288437 104.589577 110 99"></polygon>
                <polygon id="路径-17" fill="#804A2E" transform="translate(121.283817, 106.863573) rotate(-2.000000) translate(-121.283817, -106.863573) " points="113.200628 101.278697 129.367006 101.278697 127.43903 112.448449 115.204727 112.448449"></polygon>
                <polygon id="路径-16" fill="#ECC7C7" points="86.6051377 65.4951879 75 82.454419 112.706286 102.589577 121.356127 82"></polygon>
                <polygon id="路径-36" fill="#864727" points="167.911918 83.7947887 152 94.2592556 132.919539 109.495356 130 100.247678"></polygon>
                <polygon id="路径-16" fill="#ECC7C7" transform="translate(144.455959, 83.794789) scale(-1, 1) translate(-144.455959, -83.794789) " points="133.057373 64 121 83.454419 158.706286 103.589577 167.911918 81.5913871"></polygon>
                <polygon id="路径-46" fill="#864727" points="151.335003 218.929131 137.397679 242.058207 123.460355 232.758881 138 222.607951"></polygon>
                <polygon id="路径-18" fill="#ECC7C7" points="115.40334 112.657204 110 222.243444 129.871458 236.19026 150.335003 217.929131 127.630189 112.230233"></polygon>
                <g id="编组-7" transform="translate(279.533660, 33.536096) rotate(4.000000) translate(-279.533660, -33.536096) translate(255.033660, 2.036096)">
                    <path d="M3.31858955,39.8752554 C4.06044519,34.8546349 5.06204881,30.8940779 6.3234004,27.9935843 C7.584752,25.0930907 10.1081846,20.9477833 13.8936983,15.5576621 C15.1378959,14.4519196 16.5220078,14.1717863 18.0460339,14.7172622 C19.5700599,15.2627382 20.2202661,16.4570742 19.9966525,18.3002704 C21.1273751,15.9144456 21.9871852,14.1490891 22.5760827,13.0042011 C23.1649802,11.8593131 24.053311,10.226072 25.2410752,8.10447767 C26.132727,7.59697602 27.0506932,7.47010061 27.9949738,7.72385144 C28.9392544,7.97760226 29.6463562,8.83868274 30.1162791,10.3070929 C31.0731328,8.81194335 31.7869152,7.50561157 32.2576264,6.38809753 C32.7283375,5.27058348 33.5986844,3.67241241 34.8686669,1.5935843 C36.0892008,0.773085207 37.4723233,0.713754568 39.0180344,1.41559238 C40.5637455,2.1174302 41.336601,3.31162305 41.336601,4.99817093 L39.0180344,10.3070929 C40.9987056,8.83868274 42.7032949,8.42351666 44.1318023,9.06159465 C45.5603096,9.69967263 46.3449572,10.6614797 46.4857451,11.9470158 L41.9890413,22.252757 C43.6898676,21.9132328 45.1887689,21.9935085 46.4857451,22.4935843 C47.7827213,22.9936601 48.6199943,24.3241468 48.9975641,26.4850445 L36.7455087,54.4153752 L3.31858955,39.8752554 Z" id="路径-14" fill="#FDF4D8"></path>
                    <path d="M1.08875412,45.2522668 C2.14069042,37.9720844 4.93694899,35.3917331 9.47752983,37.5112129 C14.0181107,39.6306928 23.6896643,43.6688171 38.4921908,49.6255859 L33.7358247,59.2955437 C31.0653027,60.2922424 29.7300417,60.7905917 29.7300417,60.7905917 C29.7300417,60.7905917 20.1829459,55.6111501 1.08875412,45.2522668 Z" id="路径-4" fill="#FAEABC" transform="translate(19.790472, 48.792470) rotate(5.000000) translate(-19.790472, -48.792470) "></path>
                    <path d="M39.4862663,4.96334077 C37.6368689,7.84070683 34.7035355,15.5407068 30.6862663,28.0633408" id="路径-22" stroke="#F4DFA4" stroke-width="2.2" stroke-linecap="round"></path>
                    <path d="M29.5862663,10.4633408 C28.3457839,12.9866893 26.5124505,17.0200226 24.0862663,22.5633408" id="路径-22" stroke="#F0D797" stroke-width="2.2" stroke-linecap="round"></path>
                    <path d="M19.6862663,18.1633408 C18.2924079,20.7323239 16.8257412,22.5656572 15.2862663,23.6633408" id="路径-22" stroke="#F4DFA4" stroke-width="2.2" stroke-linecap="round"></path>
                    <path d="M44.6,12 C42.6281925,16.386745 40.4281925,21.5200784 38,27.4" id="路径-22" stroke="#F4DFA4" stroke-width="2.2" stroke-linecap="round"></path>
                </g>
                <polygon id="路径-20" fill="#E7BBBB" transform="translate(269.643133, 54.206375) rotate(5.000000) translate(-269.643133, -54.206375) " points="253.751949 37 292.286266 56.4851317 286.987515 71.4127495 247 52.0589924"></polygon>
            </g>
            <path d="M116.2,75.9697393 L128.736091,72.859534 C128.736091,73.6316034 128.736091,74.1499709 128.736091,74.4146367 C128.736091,74.8116352 117.708529,78.4174796 117.234192,77.7170095 C116.917968,77.2500294 116.573237,76.667606 116.2,75.9697393 Z" id="路径-2" fill="#FCC5AD"></path>
        </g>
        <g id="编组-6" transform="translate(60.000000, 2.000000)">
            <polygon id="路径-19" fill="#ACD675" points="0 93 272 93 132 0.859245657"></polygon>
            <polygon id="路径-19" fill="#8EC54C" points="27 86 245 86 131.99637 12"></polygon>
            <path d="M136.094461,86.0000008 L70,85.9939442 C81.8189064,76.804759 93.6359641,72.2101664 105.451173,72.2101664 C117.266382,72.2101664 124.768227,73.9320171 127.956708,77.3757184 C126.549507,67.78787 121.427588,62.9733944 112.590953,62.9322916 C107.09359,54.1843113 114.92227,50.5939049 122.085723,50.5939049 C122.316443,50.0443906 123.736321,40.0000815 134.679976,40.0000815 C134.912017,40.0000815 135.137569,40.0155919 135.35663,40.0466128 C135.594059,40.0152478 135.840218,39.9998725 136.094461,40.0000008 C148.089416,40.0062156 149.683557,50.0505248 149.914277,50.600039 C157.07773,50.600039 164.90641,54.1904454 159.409047,62.9384257 C150.572412,62.9795285 145.450493,67.7940041 144.043292,77.3818526 C146.727813,73.9381512 153.977678,72.2163005 165.792887,72.2163005 C177.608096,72.2163005 189.677134,76.8108673 202,86.0000008 L202,86.0000008 L136.094461,86.0000008 L136.094461,86.0000008 Z" id="形状结合" fill="#ACD675"></path>
            <polygon id="路径-26" fill="#6AA62E" points="132 11 136 19.0995502 224.962753 86 245 86"></polygon>
            <polygon id="路径-27" fill="#6AA62E" points="132.002402 11 136 19.0995502 44 74"></polygon>
            <line x1="97.5" y1="29.6915736" x2="34.5" y2="80.7950218" id="路径-28" stroke="#689A33" opacity="0.400000006" stroke-linecap="round"></line>
            <line x1="158" y1="23" x2="245.1" y2="80.6519718" id="路径-29" stroke="#689A33" opacity="0.400000006" stroke-linecap="round"></line>
            <path d="M125,51 C126.687333,45.6666667 129.020666,43 132,43" id="路径-43" stroke="#689A33" opacity="0.400000006" stroke-linecap="round"></path>
            <path d="M152.455508,56 C156.818503,56 159,58.2437233 159,62.73117 C151.40066,63.4707027 146.40066,68.2269794 144,77" id="路径-44" stroke="#689A33" opacity="0.400000006" stroke-linecap="round"></path>
            <path d="M202,86 C192.363,78.4966505 183.696334,74.1633171 176,73" id="路径-45" stroke="#689A33" opacity="0.400000006" stroke-linecap="round"></path>
            <path d="M192,83 C182.756492,78 172.423158,76.75 161,79.25" id="路径-42" stroke="#689A33" opacity="0.400000006" stroke-linecap="round"></path>
        </g>
        <rect id="矩形" fill="#72A041" x="56" y="421" width="276" height="26"></rect>
        <rect id="矩形" fill="#72A041" x="54" y="439" width="281" height="8"></rect>
        <rect id="矩形" fill="#72A041" x="54" y="439" width="281" height="8"></rect>
        <line x1="111.756621" y1="384.853482" x2="122" y2="340" id="路径-23" stroke="#C05927" stroke-width="1.5" stroke-linecap="round"></line>
        <line x1="91.4904377" y1="295.096764" x2="122" y2="340" id="路径-21" stroke="#DC9976" stroke-width="1.5" stroke-linecap="round"></line>
        <line x1="252.360405" y1="382.815039" x2="249.515915" y2="337.976244" id="路径-30" stroke="#C05927" stroke-width="1.5" stroke-linecap="round"></line>
        <polyline id="路径-32" stroke="#689A33" opacity="0.400000006" stroke-linecap="round" points="211 105 69 105 69 286"></polyline>
        <g id="编组-9" transform="translate(205.000000, 318.000000)">
            <path d="M0,4.38265879 L3.6855041,24.4809182 C4.25507996,27.5870016 7.13475956,29.7199665 10.2719931,29.3594991 L25.5093619,27.6087288 C28.8014109,27.2304731 31.1635071,24.2551033 30.7852514,20.9630543 C30.7658303,20.7940279 30.7392285,20.6259041 30.7055182,20.4591386 L26.7720049,1 L26.7720049,1 L0,4.38265879 Z" id="路径-38" fill="#E6A174"></path>
            <line x1="0" y1="4" x2="27.5" y2="0.5" id="路径-37" stroke="#E1864E" stroke-width="3" stroke-linecap="round"></line>
        </g>
        <path d="M238,298 C247.833364,306.103072 253.868225,312.62213 256.104583,317.557173 C258.036951,321.821391 277.828322,310.936839 290.5,315.504963 C293.122494,316.450369 295.459188,318.67636 297.510083,322.182937 L290.5,331.762345 L282.795695,342.471594 C282.478413,342.167864 280.099153,341.796558 275.657918,341.357677 C272.675156,341.062922 263.961156,339.943696 249.515915,338 L238,298 Z" id="路径-40" fill="#C05927"></path>
        <line x1="237.515915" y1="298.976244" x2="249.515915" y2="337.976244" id="路径-33" stroke="#DC9976" stroke-width="1.5" stroke-linecap="round"></line>
        <line x1="71.5" y1="207" x2="71.5" y2="121" id="路径-35" stroke="#689A33" opacity="0.400000006" stroke-linecap="round"></line>
        <g id="编组-8" transform="translate(232.000000, 105.000000)">
            <path d="M58.5,89 C73.3000594,89 86.8164589,84.819281 97.1195948,77.9256611 C99.0115116,76.6598178 105.638313,77.314974 117,79.8911297 C111.630943,71.4371866 109.491056,66.4028318 110.580339,64.7880655 C114.684186,58.7044705 117,51.8079573 117,44.5 C117,19.9233286 90.8086579,0 58.5,0 C26.1913421,0 0,19.9233286 0,44.5 C0,69.0766714 26.1913421,89 58.5,89 Z" id="椭圆形" fill="#FDE25B" transform="translate(58.500000, 44.500000) scale(-1, 1) translate(-58.500000, -44.500000) "></path>
            <text id="Hello~" font-family="Chalkboard-Bold, Chalkboard" font-size="24" font-weight="bold" fill="#383838">
                <tspan x="28" y="53">Hello~</tspan>
            </text>
        </g>
        <line x1="200" y1="101.5" x2="88" y2="101.5" id="路径-34" stroke="#689A33" opacity="0.400000006" stroke-linecap="round"></line>
        <path d="" id="路径-48" stroke="#979797"></path>
        <line x1="131" y1="87.5" x2="230" y2="87.5" id="路径-41" stroke="#689A33" opacity="0.400000006" stroke-linecap="round"></line>
    </g>
</svg>