<svg xmlns="http://www.w3.org/2000/svg" viewBox="0 0 1821.07 622.53"><defs><style>.cls-1{fill:#4d4d4d;}.cls-2{fill:#7dd62c;}</style></defs><title>cleo的新logo</title><g id="图层_2" data-name="图层 2"><rect class="cls-1" x="702.09" y="173.23" width="62.19" height="289.69"/><rect class="cls-1" x="702.09" y="394.98" width="160.05" height="67.94"/><rect class="cls-2" x="935.52" y="288.71" width="138.92" height="57.99"/><path class="cls-1" d="M1295.78,172h0c-56.17,0-101.7,47.56-101.7,110.31v67.12c0,62.75,45.53,113.62,101.7,113.62h0c56.16,0,101.69-50.87,101.69-113.62V282.33C1397.47,219.58,1351.94,172,1295.78,172Zm46.35,172.9c0,28.61-20.75,51.79-46.35,51.79h0c-25.61,0-46.36-23.18-46.36-51.79V286.85c0-28.6,20.75-51.79,46.36-51.79h0c25.6,0,46.35,23.19,46.35,51.79Z"/><polygon class="cls-2" points="935.52 225.72 935.52 172.36 1138.8 172.36 1110.78 225.72 935.52 225.72"/><polygon class="cls-2" points="935.52 463.05 935.52 410.46 1111.78 410.46 1138.8 463.05 935.52 463.05"/><circle class="cls-2" cx="1497.43" cy="163.07" r="30.44"/><path class="cls-1" d="M543.46,464.59h61.28V395H536.5c-37.83,0-65.7-41.58-65.7-75.94h0c0-43.8,39.56-74.55,65.7-74.55h68.24V174.9H543.46c-79.05,0-143.13,69.49-143.13,144.15h0C400.33,393.72,464.41,464.59,543.46,464.59Z"/></g></svg>