<?xml version="1.0" encoding="utf-8"?>
<!-- Generator: Adobe Illustrator 22.0.0, SVG Export Plug-In . SVG Version: 6.00 Build 0)  -->
<svg version="1.1" xmlns="http://www.w3.org/2000/svg" xmlns:xlink="http://www.w3.org/1999/xlink" x="0px" y="0px"
	 viewBox="0 0 1821.1 622.5" style="enable-background:new 0 0 1821.1 622.5;" xml:space="preserve">
<style type="text/css">
	.st0{opacity:0.31;fill:#F24C8C;}
	.st1{opacity:0.73;}
	.st2{display:none;fill:#8BC53F;}
	.st3{display:none;opacity:0.4;fill:#C44155;}
	.st4{display:none;opacity:0.5;fill:#E077B1;}
	.st5{fill:#FCFCFC;}
	.st6{opacity:0.49;}
	.st7{opacity:0.47;fill:#5AECFF;}
	.st8{fill:#FFFFFF;}
	.st9{fill:#4D4D4D;}
	.st10{fill:#7DD62C;}
</style>
<g id="图层_1">
</g>
<g id="图层_2">
	<g>
		<rect x="311.9" y="173.2" class="st9" width="62.2" height="289.7"/>
		<rect x="311.9" y="395" class="st9" width="160.1" height="67.9"/>
	</g>
	<rect x="545.4" y="288.7" class="st10" width="138.9" height="58"/>
	<path class="st9" d="M905.6,172L905.6,172c-56.2,0-101.7,47.6-101.7,110.3v67.1c0,62.8,45.5,113.6,101.7,113.6h0
		c56.2,0,101.7-50.9,101.7-113.6v-67.1C1007.3,219.6,961.8,172,905.6,172z M952,344.9c0,28.6-20.8,51.8-46.4,51.8l0,0
		c-25.6,0-46.4-23.2-46.4-51.8v-58.1c0-28.6,20.8-51.8,46.4-51.8l0,0c25.6,0,46.4,23.2,46.4,51.8V344.9z"/>
	<polygon class="st10" points="545.4,225.7 545.4,172.4 748.6,172.4 720.6,225.7 	"/>
	<polygon class="st10" points="545.4,463 545.4,410.5 721.6,410.5 748.6,463 	"/>
	<circle class="st10" cx="1107.3" cy="163.1" r="30.4"/>
	<path class="st9" d="M153.3,464.6h61.3l0-69.6h-68.2c-37.8,0-65.7-41.6-65.7-75.9v0c0-43.8,39.6-74.5,65.7-74.5h68.2v-69.6h-61.3
		c-79,0-143.1,69.5-143.1,144.1v0C10.2,393.7,74.3,464.6,153.3,464.6z"/>
</g>
<g id="图层_3">
</g>
<g id="图层_4">
</g>
</svg>
