<svg xmlns="http://www.w3.org/2000/svg" viewBox="0 0 2937.02 485.51"><defs><style>.cls-1{fill:#4d4d4d;}.cls-2{fill:#7dd62c;}</style></defs><title>website_logo</title><g id="图层_2" data-name="图层 2"><path class="cls-1" d="M885,124.91h85a2.48,2.48,0,0,1,2.48,2.48V475.15a0,0,0,0,1,0,0h-90a0,0,0,0,1,0,0V127.39a2.48,2.48,0,0,1,2.48-2.48Z"/><rect class="cls-1" x="882.54" y="385.15" width="219.35" height="90"/><path class="cls-1" d="M1240.13,124.92h88.76a1.23,1.23,0,0,1,1.23,1.23v349a0,0,0,0,1,0,0h-88.76a1.23,1.23,0,0,1-1.23-1.23v-349A0,0,0,0,1,1240.13,124.92Z"/><path class="cls-1" d="M2232.22,475.15l-154.59-332H1968.31L1804.8,474.65l108.82.5,31.17-121.95a76.67,76.67,0,0,1,74.28-57.67h0a76.67,76.67,0,0,1,73.73,55.66l35.31,124Z"/><rect class="cls-1" x="2401.85" y="328.52" width="98.49" height="146.63"/><path class="cls-1" d="M2509.81,124.92v96.42a55.54,55.54,0,0,1-55.54,55.55h0a55.55,55.55,0,0,1-55.54-55.55V124.92H2283.45v77.83A168.23,168.23,0,0,0,2451.68,371h0a167,167,0,0,0,167.05-167v-79Z"/><path class="cls-1" d="M225.42,129.92V231.44q-5.43-.34-10.81-.35c-47.63,0-86.08,15.18-119.18,41.26l-1.37,1-.91.67V129.92H2.55V475.15h90.6V450.64c.13-2,.29-3.95.51-5.91.12-1.08.25-2.14.4-3.2.37-2.77.82-5.5,1.37-8.21,12.21-60.87,61.81-106.74,126.24-106.74,1.25,0,2.5,0,3.75.05V475.15h90.9V129.92Z"/><circle class="cls-2" cx="2860.37" cy="78.97" r="70.32"/><path class="cls-1" d="M595.23,124.58h0A143.33,143.33,0,0,0,451.9,267.91v63.91A143.33,143.33,0,0,0,595.23,475.15h0A143.33,143.33,0,0,0,738.55,331.82V267.91A143.33,143.33,0,0,0,595.23,124.58Zm65.33,201.54a65.33,65.33,0,0,1-65.33,65.33h0a65.33,65.33,0,0,1-65.33-65.33V273.61a65.33,65.33,0,0,1,65.33-65.33h0a65.33,65.33,0,0,1,65.33,65.33Z"/><path class="cls-2" d="M1572.31,124.92H1468.05v90.2h112.78a85,85,0,0,1,85,85h0a85,85,0,0,1-85,85H1468.05v90.1h104.26A175.11,175.11,0,0,0,1747.42,300h0A175.11,175.11,0,0,0,1572.31,124.92Z"/></g></svg>